<?xml version="1.0" standalone="no"?>
<!DOCTYPE svg PUBLIC "-//W3C//DTD SVG 20010904//EN"
 "http://www.w3.org/TR/2001/REC-SVG-20010904/DTD/svg10.dtd">
<svg version="1.0" xmlns="http://www.w3.org/2000/svg"
 width="128.000000pt" height="128.000000pt" viewBox="0 0 128.000000 128.000000"
 preserveAspectRatio="xMidYMid meet">
<metadata>
Created by potrace 1.11, written by Peter Selinger 2001-2013
</metadata>
<g transform="translate(0.000000,128.000000) scale(0.100000,-0.100000)"
fill="#000000" stroke="none">
<path d="M388 882 c-149 -119 -247 -204 -248 -214 0 -15 9 -18 59 -18 58 0 59
-1 56 -26 -2 -18 3 -28 19 -34 20 -7 21 -14 20 -136 -2 -151 -1 -147 -13 -139
-12 7 -34 -32 -26 -45 3 -6 -1 -11 -9 -11 -9 -1 -21 -2 -27 -3 -14 -1 -28 -36
-22 -53 4 -11 -38 -41 -46 -32 -3 2 -7 -7 -11 -21 -5 -21 -5 -43 -1 -117 1
-10 108 -13 500 -13 l499 0 4 53 c6 75 -3 101 -35 105 -23 3 -27 8 -25 30 3
36 -8 52 -32 47 -11 -2 -21 2 -22 8 0 7 -2 17 -3 22 -2 6 -3 15 -4 22 0 6 -9
10 -19 8 -16 -3 -18 8 -17 133 0 128 1 137 20 143 14 4 19 13 18 32 -2 27 -1
27 57 27 51 0 60 3 60 18 -1 9 -24 35 -52 57 -28 22 -56 45 -62 50 -6 6 -51
44 -101 85 -49 41 -92 77 -95 80 -30 32 -171 140 -181 139 -8 0 -125 -89 -261
-197z m365 71 c50 -43 97 -82 103 -88 6 -5 55 -46 108 -90 l97 -80 -211 -3
c-115 -1 -304 -1 -420 0 l-210 3 211 168 c115 92 214 167 220 167 5 0 51 -35
102 -77z m-303 -323 c0 -18 -7 -20 -83 -20 -88 0 -99 3 -90 26 4 10 26 14 89
14 77 0 84 -2 84 -20z m80 -10 c0 -23 4 -30 20 -30 20 0 20 -5 18 -137 -3
-114 -6 -138 -18 -138 -9 0 -17 -12 -20 -30 -5 -29 -10 -31 -51 -26 -5 0 -9 9
-8 18 2 29 0 43 -8 42 -28 -4 -30 7 -30 136 0 124 2 135 19 135 16 0 24 22 19
53 0 4 13 7 29 7 27 0 30 -3 30 -30z m200 10 c0 -19 -7 -20 -90 -20 -83 0 -90
1 -90 20 0 19 7 20 90 20 83 0 90 -1 90 -20z m80 -10 c0 -22 5 -30 18 -30 17
0 19 -11 19 -139 0 -130 -1 -139 -19 -136 -14 3 -18 -2 -18 -22 0 -23 -9 -30
-47 -37 -4 0 -10 13 -13 29 -4 22 -11 30 -25 29 -19 -1 -20 5 -17 137 3 130 4
139 23 139 14 0 19 7 19 30 0 27 3 30 30 30 27 0 30 -3 30 -30z m193 16 c9
-23 -2 -26 -90 -26 -76 0 -83 2 -83 20 0 18 7 20 84 20 63 0 85 -4 89 -14z
m-612 -63 c1 -25 1 -214 0 -234 -1 -18 -33 -31 -48 -20 -7 5 -10 202 -4 259 2
20 51 15 52 -5z m279 -121 l0 -138 -30 0 -30 0 0 138 0 138 30 0 30 0 0 -138z
m275 5 c0 -70 -2 -131 -5 -135 -3 -4 -16 -7 -30 -7 l-25 -1 2 136 c0 74 2 136
2 138 1 2 13 2 28 0 l28 -3 0 -128z m-495 -179 c0 -16 -11 -18 -83 -18 -86 0
-99 3 -91 23 3 8 34 12 89 12 74 0 85 -2 85 -17z m268 13 c6 0 12 -8 12 -16 0
-12 -17 -15 -90 -15 -68 0 -90 3 -90 13 0 8 2 16 4 18 4 4 129 4 164 0z m280
-4 c27 -18 -3 -27 -84 -27 -74 0 -84 2 -84 18 0 16 9 18 78 17 42 0 83 -4 90
-8z m44 -80 c4 -6 4 -15 2 -19 -3 -4 -184 -8 -404 -8 -332 0 -399 2 -403 14
-3 8 -4 16 -1 18 10 11 799 5 806 -5z m58 -109 l0 -38 -459 0 c-430 0 -460 1
-463 18 -2 9 -2 26 0 37 3 20 9 21 463 21 l459 -1 0 -37z"/>
<path d="M610 949 c-39 -15 -79 -59 -85 -93 -9 -48 15 -107 54 -133 99 -67
228 30 191 142 -11 34 -60 84 -83 86 -7 0 -21 2 -32 4 -11 2 -31 -1 -45 -6z
m116 -50 c74 -78 -3 -203 -107 -173 -81 23 -102 136 -35 184 48 35 102 31 142
-11z"/>
<path d="M640 920 c0 -5 -9 -19 -20 -30 -24 -24 -17 -44 20 -60 35 -15 30 -44
-7 -37 -13 2 -26 0 -29 -4 -3 -5 -1 -9 5 -9 5 0 17 -7 25 -16 15 -14 18 -14
36 8 27 33 25 53 -10 78 -32 23 -32 41 0 35 29 -6 31 8 4 28 -13 10 -24 13
-24 7z"/>
</g>
</svg>
